<mxfile host="app.diagrams.net" modified="2023-11-10T08:10:22.957Z" agent="Mozilla/5.0 (Windows NT 10.0; Win64; x64) AppleWebKit/537.36 (KHTML, like Gecko) Chrome/119.0.0.0 Safari/537.36" etag="Vi8q4TFKB0AfzTdgxulD" version="22.1.0" type="github">
  <diagram name="Pagina-1" id="hsbDmEz4OHzOjh6wGw8O">
    <mxGraphModel dx="1434" dy="782" grid="1" gridSize="10" guides="1" tooltips="1" connect="1" arrows="1" fold="1" page="1" pageScale="1" pageWidth="827" pageHeight="1169" math="0" shadow="0">
      <root>
        <mxCell id="0" />
        <mxCell id="1" parent="0" />
        <mxCell id="qwmhT0cSh6cniepG6w-j-4" style="rounded=0;orthogonalLoop=1;jettySize=auto;html=1;endArrow=none;endFill=0;" edge="1" parent="1" source="qwmhT0cSh6cniepG6w-j-1" target="qwmhT0cSh6cniepG6w-j-3">
          <mxGeometry relative="1" as="geometry" />
        </mxCell>
        <mxCell id="qwmhT0cSh6cniepG6w-j-5" style="rounded=0;orthogonalLoop=1;jettySize=auto;html=1;endArrow=none;endFill=0;" edge="1" parent="1" source="qwmhT0cSh6cniepG6w-j-1" target="qwmhT0cSh6cniepG6w-j-2">
          <mxGeometry relative="1" as="geometry" />
        </mxCell>
        <mxCell id="qwmhT0cSh6cniepG6w-j-1" value="Utente" style="shape=umlActor;verticalLabelPosition=bottom;verticalAlign=top;html=1;" vertex="1" parent="1">
          <mxGeometry x="150" y="250" width="30" height="60" as="geometry" />
        </mxCell>
        <mxCell id="qwmhT0cSh6cniepG6w-j-2" value="Use Case" style="ellipse;whiteSpace=wrap;html=1;" vertex="1" parent="1">
          <mxGeometry x="290" y="110" width="140" height="70" as="geometry" />
        </mxCell>
        <mxCell id="qwmhT0cSh6cniepG6w-j-3" value="Use Case" style="ellipse;whiteSpace=wrap;html=1;" vertex="1" parent="1">
          <mxGeometry x="440" y="250" width="140" height="70" as="geometry" />
        </mxCell>
      </root>
    </mxGraphModel>
  </diagram>
</mxfile>
